<?xml version="1.0" encoding="UTF-8" standalone="no"?>
<svg
   xmlns:dc="http://purl.org/dc/elements/1.1/"
   xmlns:cc="http://creativecommons.org/ns#"
   xmlns:rdf="http://www.w3.org/1999/02/22-rdf-syntax-ns#"
   xmlns:svg="http://www.w3.org/2000/svg"
   xmlns="http://www.w3.org/2000/svg"
   xmlns:sodipodi="http://sodipodi.sourceforge.net/DTD/sodipodi-0.dtd"
   xmlns:inkscape="http://www.inkscape.org/namespaces/inkscape"
   width="250"
   height="250"
   viewBox="0 0 66.145835 66.145832"
   version="1.1"
   id="svg8"
   inkscape:version="1.0.1 (3bc2e813f5, 2020-09-07)"
   sodipodi:docname="btnCompany.svg">
  <title
     id="title833">CompanyBtn</title>
  <defs
     id="defs2" />
  <sodipodi:namedview
     id="base"
     pagecolor="#ffffff"
     bordercolor="#666666"
     borderopacity="1.0"
     inkscape:pageopacity="0.0"
     inkscape:pageshadow="2"
     inkscape:zoom="2.8"
     inkscape:cx="63.917824"
     inkscape:cy="83.070138"
     inkscape:document-units="mm"
     inkscape:current-layer="layer1"
     inkscape:document-rotation="0"
     showgrid="false"
     units="px"
     inkscape:window-width="1920"
     inkscape:window-height="1017"
     inkscape:window-x="-8"
     inkscape:window-y="-8"
     inkscape:window-maximized="1" />
  <metadata
     id="metadata5">
    <rdf:RDF>
      <cc:Work
         rdf:about="">
        <dc:format>image/svg+xml</dc:format>
        <dc:type
           rdf:resource="http://purl.org/dc/dcmitype/StillImage" />
        <dc:title>CompanyBtn</dc:title>
        <dc:date>21.05.2023</dc:date>
        <dc:creator>
          <cc:Agent>
            <dc:title>Iliya Popov</dc:title>
          </cc:Agent>
        </dc:creator>
      </cc:Work>
    </rdf:RDF>
  </metadata>
  <g
     inkscape:label="Слой 1"
     inkscape:groupmode="layer"
     id="layer1">
    <g
       id="g859"
       transform="matrix(0.51521233,0,0,0.53302575,1.1983326,1.8475719)"
       inkscape:export-xdpi="96"
       inkscape:export-ydpi="96">
      <path
         id="path835"
         style="fill:#88aa00;fill-opacity:1;stroke:#88aa00;stroke-width:3.53329;stroke-opacity:1"
         d="M 19.694593,9.0021636 A 13.920818,12.201126 0 0 0 5.7737339,21.203368 13.920818,12.201126 0 0 0 19.694593,33.404574 13.920818,12.201126 0 0 0 33.615453,21.203368 13.920818,12.201126 0 0 0 31.826102,15.219281 2.2628269,3.233255 0 0 0 33.147226,12.279215 2.2628269,3.233255 0 0 0 30.884378,9.0460614 2.2628269,3.233255 0 0 0 28.641101,11.855743 13.920818,12.201126 0 0 0 19.694593,9.0021636 Z" />
      <path
         style="fill:#165016;fill-opacity:1;stroke:none;stroke-width:0.497681px;stroke-linecap:butt;stroke-linejoin:miter;stroke-opacity:1"
         d="m 26.727583,24.286099 0.554964,5.980476 c 0,0 -6.571884,3.207578 -12.095683,3.006924 C 9.29716,33.059554 3.1151014,29.985423 2.5143454,22.226949 1.9729664,15.235298 6.693364,11.665024 11.738396,10.069007 c 5.803908,-1.8360933 13.722672,0.57062 13.722672,0.57062 l 0.550737,5.934919 c 0,0 -14.13241,-3.542371 -14.386191,3.889098 -0.317485,9.296976 15.101969,3.822455 15.101969,3.822455 z"
         id="path1031"
         sodipodi:nodetypes="ccsssccsc" />
      <path
         style="fill:#ffffff;fill-opacity:1;stroke:none;stroke-width:0.465676px;stroke-linecap:butt;stroke-linejoin:miter;stroke-opacity:1"
         d="m 26.916571,24.286099 0.554964,5.980476 c 0,0 -4.836041,2.455625 -9.977789,2.266894 C 12.011401,32.332237 6.256922,29.440781 5.6977169,22.14334 5.1937819,15.567155 9.587695,12.209038 14.283789,10.707862 c 5.402484,-1.7269866 11.366267,-0.06823 11.366267,-0.06823 l 0.550737,5.934919 c 0,0 -11.785757,-3.079597 -12.021985,3.910271 -0.295527,8.74452 12.737763,3.801282 12.737763,3.801282 z"
         id="path895-5"
         sodipodi:nodetypes="ccsssccsc" />
      <text
         xml:space="preserve"
         style="font-weight:bold;font-size:5.05526px;line-height:1.25;font-family:'Segoe Print';-inkscape-font-specification:'Segoe Print, Bold';fill:#ffffff;fill-opacity:1;stroke:#ffffff;stroke-width:0.204144;stroke-miterlimit:4;stroke-dasharray:none;stroke-opacity:1"
         x="54.001759"
         y="8.0252867"
         id="text942"
         transform="scale(0.51263003,1.9507246)"><tspan
           sodipodi:role="line"
           id="tspan940"
           x="54.001759"
           y="8.0252867"
           style="fill:#ffffff;fill-opacity:1;stroke:#ffffff;stroke-width:0.204144;stroke-miterlimit:4;stroke-dasharray:none;stroke-opacity:1">ADD</tspan></text>
    </g>
    <text
       xml:space="preserve"
       style="font-weight:bold;font-size:4.64501px;line-height:1.25;font-family:'Segoe Print';-inkscape-font-specification:'Segoe Print, Bold';fill:#536c53;fill-opacity:1;stroke:#000000;stroke-width:0.187577;stroke-miterlimit:4;stroke-dasharray:none;stroke-opacity:1"
       x="91.150131"
       y="-3.3292594"
       id="text942-7"
       transform="scale(0.53939563,1.8539268)"><tspan
         sodipodi:role="line"
         id="tspan940-9"
         x="91.150131"
         y="-3.3292594"
         style="fill:#536c53;fill-opacity:1;stroke:#000000;stroke-width:0.187577;stroke-miterlimit:4;stroke-dasharray:none;stroke-opacity:1">ADD</tspan></text>
  </g>
</svg>
